<svg width="744" height="787" viewBox="0 0 744 787" fill="none" xmlns="http://www.w3.org/2000/svg">
<path d="M694.147 0.337703C702.887 0.314016 736.691 -0.993573 742.594 1.70186L743.072 2.42792C742.342 5.66186 740.124 9.16408 738.214 11.889C722.837 33.8324 707.605 55.8952 692.296 77.8883L589.163 226.552C569.629 254.988 549.926 283.308 530.053 311.51C525.693 317.693 514.038 335.855 509.639 340.274C507.009 345.492 493.561 364.259 489.578 370.027L474.834 391.147C472.669 394.256 469.889 398.751 467.583 401.512C463.634 406.2 457.77 415.559 453.879 420.993C451.332 424.56 444.477 433.923 442.476 437.394C438.773 442.987 431.904 453.143 427.964 458.229C424.749 462.985 421.501 467.713 418.214 472.416C414.12 478.024 410.33 484.008 406.095 489.824L404.394 492.468C393.58 507.763 381.664 524.512 371.455 540.169C335.247 593.034 298.747 645.691 261.958 698.149L225.753 750.351C218.309 761.218 210.887 772.331 203.036 782.927C201.621 784.837 199.714 785.291 197.491 785.721L196.908 785.828C187.082 786.166 176.028 785.958 166.108 785.958C151.639 786.031 137.17 785.958 122.703 785.746C120.997 785.286 89.0829 785.886 84.6777 785.842C74.5587 785.862 17.5859 787.873 12.675 784.697C12.1027 784.329 12.153 784.31 12.0374 783.604C11.6556 781.26 14.1378 777.9 15.3516 775.991C25.8839 759.429 37.7808 743.613 48.9473 727.472L125.179 617.557L212.382 491.873C232.972 462.014 254.248 430.298 275.401 400.946C279.46 396.692 280.76 393.845 284.015 389.074C288.18 384.027 299.889 366.668 303.585 360.849C307.43 356.115 313.058 347.287 316.941 341.881C317.737 340.928 318.302 339.937 318.955 338.883L319.198 338.803C320.846 335.794 328.775 324.476 331.198 321.042L334.091 317.18L338.041 311.541C339.798 307.296 345.805 301.737 347.601 297.222L347.796 297.247C348.862 295.388 349.559 294.55 350.907 292.852L352.583 290.411C354.093 288.793 357.277 283.864 358.664 281.843L371.368 263.229C383.206 246.806 395.257 227.945 406.975 211.14L504.66 70.5571C519.326 49.4447 533.161 29.0878 548.156 8.02229C550.051 4.73131 552.734 0.564418 557.036 0.422299C564.379 0.1806 571.809 0.343993 579.166 0.34786L629.991 0.363807L648.481 0.348339C663.548 0.369125 679.123 0.591487 694.147 0.337703Z" fill="#3B6EB2"/>
<path d="M284.015 389.074C296.164 402.246 305.273 417.531 318.382 430.762L318.285 431.763C316.865 433.716 314.014 437.385 312.845 439.289C307.745 451.688 298.042 464.01 294.572 476.927C293.335 486.145 302.288 491.733 296.975 501.232C292.074 509.991 287.099 518.982 281.835 527.63C270.334 546.521 260.998 566.805 250.419 586.141C241.481 602.475 229.947 618.267 221.053 634.771C210.895 652.579 201.437 670.421 191.308 688.177L177.402 712.4C175.908 714.986 169.487 725.069 169.804 727.467C169.356 729.217 166.359 733.848 165.257 735.965C160.843 744.459 156.139 752 149.855 759.193C145.052 764.689 129.339 776.779 126.836 782.328C125.434 783.295 123.566 784.373 122.703 785.746C120.997 785.286 89.0829 785.886 84.6777 785.842C74.5587 785.862 17.5859 787.873 12.675 784.697C12.1027 784.329 12.153 784.31 12.0374 783.604C11.6556 781.26 14.1378 777.9 15.3516 775.991C25.8839 759.429 37.7808 743.613 48.9473 727.472L125.179 617.557L212.382 491.873C232.972 462.014 254.248 430.298 275.401 400.946C279.46 396.692 280.76 393.845 284.015 389.074Z" fill="#F48A24"/>
<path d="M84.6777 785.842C87.2446 781.057 93.0246 772.708 96.1836 767.86L118.963 733.065L185.129 632.088L261.06 516.14C277.182 491.496 295.205 462.618 312.845 439.289C307.745 451.688 298.042 464.01 294.572 476.926C293.335 486.145 302.288 491.733 296.975 501.232C292.075 509.991 287.099 518.982 281.835 527.63C270.334 546.521 260.998 566.805 250.419 586.141C241.481 602.475 229.947 618.267 221.053 634.771C210.895 652.579 201.437 670.421 191.308 688.176L177.402 712.399C175.908 714.986 169.487 725.069 169.804 727.467C169.356 729.217 166.359 733.848 165.257 735.965C160.843 744.458 156.14 752 149.855 759.192C145.052 764.689 129.339 776.779 126.836 782.328C125.434 783.295 123.566 784.373 122.703 785.746C120.997 785.286 89.0829 785.886 84.6777 785.842Z" fill="#E92627"/>
<path d="M548.156 8.02203C550.051 4.73105 552.734 0.564161 557.036 0.422041C564.379 0.180342 571.809 0.343735 579.166 0.347602L629.991 0.363549C624.533 8.88393 616.074 19.772 608.808 26.9877C604.98 33.8553 595.312 46.5228 590.521 53.2198L555.456 102.262C515.237 158.576 475.472 215.357 434.007 270.748C431.203 274.497 420.268 290.142 417.851 292.056C414.318 297.133 408.609 304.215 405.641 308.87C404.427 310.718 403.717 311.8 402.31 313.481C399.714 317.017 396.297 321.418 394.025 325.064C390.999 329.016 384.743 338.402 382.08 341.357C378.324 346.224 375.158 351.348 371.479 356.126C370.27 357.712 369.052 359.369 367.805 360.914L365.127 365.248C360.661 371.154 356.326 377.157 352.122 383.253L351.918 383.195C351.654 382.436 341.44 369.036 340.212 367.377L319.198 338.802C320.846 335.794 328.775 324.475 331.198 321.042L334.092 317.18L338.041 311.541C339.798 307.296 345.805 301.736 347.601 297.221L347.796 297.247C348.862 295.387 349.559 294.55 350.907 292.852L352.583 290.411C354.093 288.793 357.277 283.864 358.664 281.843L371.368 263.228C383.206 246.806 395.257 227.945 406.975 211.139L504.66 70.5569C519.326 49.4444 533.161 29.0876 548.156 8.02203Z" fill="#F6A11F"/>
<path d="M500.058 145.332C503.524 140.791 507.353 135.082 511.041 130.84C537.957 99.8785 565.235 68.5915 594.804 40.1314C598.087 36.9734 605.449 29.1897 608.808 26.9878C604.98 33.8554 595.312 46.5229 590.521 53.2199L555.456 102.262C515.237 158.576 475.472 215.358 434.007 270.748C431.203 274.497 420.268 290.142 417.851 292.056C414.318 297.133 408.609 304.215 405.641 308.87C404.427 310.718 403.717 311.8 402.31 313.481C399.714 317.017 396.297 321.419 394.025 325.064C390.999 329.016 384.743 338.402 382.08 341.357C378.324 346.224 375.158 351.348 371.479 356.126C370.271 357.712 369.052 359.369 367.805 360.914L365.127 365.248C360.661 371.154 356.326 377.157 352.122 383.253L351.918 383.195C351.654 382.436 341.44 369.036 340.212 367.377L319.198 338.803C320.846 335.794 328.775 324.476 331.198 321.042L334.092 317.18L338.041 311.541C339.798 307.296 345.805 301.737 347.601 297.222L347.796 297.247C348.862 295.388 349.559 294.55 350.907 292.852C359.239 304.988 369.357 320.762 378.14 332.159C386.653 319.968 398.457 304.015 404.679 291.232C427.065 245.218 456.905 206.43 486.083 164.835C489.09 160.546 498.419 149.098 500.058 145.332Z" fill="#F26E26"/>
<path d="M334.092 317.18C336.426 319.333 340.699 325.413 342.782 328.213L359.327 350.656C361.308 353.345 365.383 359.123 367.805 360.914L365.127 365.248C360.661 371.154 356.326 377.157 352.122 383.253L351.918 383.195C351.654 382.437 341.44 369.036 340.212 367.377L319.198 338.803C320.846 335.794 328.775 324.476 331.198 321.042L334.092 317.18Z" fill="#F26E26"/>
<path d="M334.092 317.18C336.426 319.333 340.699 325.413 342.782 328.213L359.327 350.656C361.308 353.345 365.383 359.123 367.805 360.914L365.127 365.248C359.036 358.28 335.263 323.606 331.198 321.042L334.092 317.18Z" fill="#E14B2C"/>
<path d="M347.796 297.247C348.579 299.394 380.296 340.039 382.08 341.357C378.324 346.224 375.158 351.348 371.479 356.126C370.271 357.712 369.052 359.369 367.805 360.914C365.383 359.123 361.308 353.345 359.327 350.656L342.782 328.213C340.699 325.413 336.426 319.333 334.092 317.18L338.041 311.541C339.798 307.296 345.805 301.737 347.601 297.222L347.796 297.247Z" fill="#ED6616"/>
<path d="M338.041 311.541C341.331 314.558 349.484 326.177 352.375 330.197C358.527 338.752 365.485 347.544 371.479 356.126C370.271 357.712 369.052 359.369 367.805 360.914C365.383 359.123 361.308 353.345 359.327 350.656L342.782 328.213C340.699 325.414 336.426 319.333 334.092 317.18L338.041 311.541Z" fill="#F26E26"/>
<path d="M378.14 332.159C379.426 334.302 380.731 336.431 382.061 338.545C384.797 338.502 414.076 293.141 417.851 292.057C414.318 297.133 408.609 304.215 405.641 308.871C404.427 310.718 403.717 311.801 402.31 313.481C399.714 317.017 396.297 321.419 394.025 325.065C390.999 329.016 384.743 338.402 382.08 341.357C380.296 340.039 348.579 299.394 347.796 297.247C348.862 295.388 349.559 294.55 350.908 292.852C359.239 304.988 369.357 320.762 378.14 332.159Z" fill="#F48A24"/>
<path d="M548.156 8.02203C550.051 4.73105 552.734 0.564161 557.036 0.422041C564.379 0.180342 571.809 0.343735 579.166 0.347602L629.991 0.363549C624.533 8.88393 616.074 19.772 608.808 26.9877C605.449 29.1896 598.087 36.9732 594.804 40.1313C565.235 68.5914 537.957 99.8784 511.041 130.84C507.353 135.082 503.524 140.791 500.058 145.332C500.856 142.558 513.975 121.859 516.383 117.93L574.371 24.8206C577.204 20.2486 580.003 12.7869 583.125 7.25971C581.941 8.90134 580.046 12.0657 578.253 12.3808C577.561 11.1632 577.813 9.81399 577.871 8.34833L576.967 8.58229C573.96 8.4276 574.255 8.72103 572.993 11.5146C569.919 10.4956 571.775 10.7073 570.891 8.08198C568.445 10.6406 565.815 14.8529 563.219 17.9477C564.234 15.5843 566.762 10.0035 566.095 7.64353L564.524 7.48836C564.341 6.48482 566.472 3.11457 567.135 1.8703C565.095 3.72365 561.179 7.79918 558.627 8.30917L558.076 7.5396C558.105 5.12164 558.52 4.48307 559.42 2.15841C556.945 4.04366 556.867 6.02222 554.735 8.07666L554.194 7.92583C554.213 6.50464 554.184 6.23055 554.494 4.86399L553.865 4.26168C552.531 5.66353 549.911 7.00351 548.156 8.02203Z" fill="#F5A1D1"/>
<path d="M572.993 11.5147C574.255 8.72117 573.96 8.42774 576.967 8.58243C574.811 13.7147 574.506 15.2741 570.286 18.9073L569.75 17.6718C571.48 15.7686 572.167 14.4654 573.293 12.1958L572.993 11.5147Z" fill="#F5B0BB"/>
<path d="M569.75 17.6719L570.286 18.9074C569.358 20.2542 568.633 21.7667 567.323 22.2337C567.565 20.4558 568.706 19.1675 569.75 17.6719Z" fill="#F48A24"/>
<path d="M318.955 338.883L319.198 338.803L340.212 367.377C341.44 369.036 351.654 382.437 351.918 383.196L352.122 383.254C353.222 385.922 388.543 434.963 390.82 436.795L379.141 456.634C377.71 459.055 374.906 464.126 373.388 466.181C369.081 473.461 364.726 481.045 360.182 488.161C355.235 497.447 348.712 507.84 343.221 516.937L322.617 551.481L311.338 570.222C309.736 572.92 307.489 577.357 305.678 579.571C304.827 579.886 304.118 580.132 303.523 580.857C293.168 593.508 281.515 610.818 270.353 622.236C263.629 629.115 251.282 630.565 241.843 640.736C231.514 651.864 228.606 660.821 220.048 671.572C210.393 683.705 197.509 696.428 187.126 708.16C182.04 713.903 174.157 721.521 169.804 727.467C169.487 725.07 175.908 714.986 177.402 712.4L191.308 688.177C201.437 670.421 210.895 652.579 221.053 634.771C229.947 618.267 241.481 602.475 250.419 586.141C260.998 566.805 270.334 546.521 281.835 527.63C287.099 518.982 292.075 509.991 296.975 501.232C302.288 491.733 293.335 486.145 294.572 476.927C298.042 464.01 307.745 451.688 312.845 439.289C314.014 437.385 316.865 433.716 318.285 431.763L318.382 430.762C305.273 417.531 296.164 402.246 284.015 389.074C288.18 384.027 299.889 366.668 303.585 360.85C307.43 356.115 313.058 347.287 316.941 341.881C317.737 340.928 318.302 339.937 318.955 338.883Z" fill="#BC206B"/>
<path d="M318.955 338.883L319.198 338.803L340.212 367.377C341.44 369.036 351.654 382.437 351.918 383.196C345.154 393.41 334.893 406.07 329.113 415.482C327.738 417.512 319.674 429.66 318.382 430.762C305.273 417.531 296.164 402.246 284.015 389.074C288.18 384.027 299.889 366.668 303.585 360.85C307.43 356.115 313.058 347.287 316.941 341.881C317.737 340.928 318.302 339.937 318.955 338.883Z" fill="#F38223"/>
<path d="M351.918 383.195L352.122 383.253C353.222 385.922 388.543 434.962 390.82 436.795L379.141 456.633C377.71 459.055 374.906 464.126 373.388 466.18C369.376 462.395 363.643 455.052 359.921 450.625C353.354 442.861 346.735 435.146 340.065 427.47C336.975 423.893 332.581 418.382 329.114 415.482C334.893 406.07 345.154 393.41 351.918 383.195Z" fill="#E92627"/>
<path d="M329.114 415.482C332.581 418.382 336.975 423.893 340.065 427.47C346.735 435.147 353.354 442.862 359.921 450.625C363.643 455.053 369.376 462.396 373.388 466.181C369.081 473.461 364.726 481.045 360.182 488.161C357.394 485.289 347.219 471.203 344.362 467.206C336.063 455.585 326.292 443.398 318.285 431.763L318.382 430.762C319.674 429.66 327.738 417.512 329.114 415.482Z" fill="#CE3C89"/>
<path d="M629.991 0.363612L648.481 0.348145C653.6 8.60459 656.413 14.3445 657.791 23.968C652.725 28.7908 636.251 54.4022 631.634 61.2815C617.186 82.8309 602.384 104.567 588.158 126.284C580.249 138.354 572.679 151.725 564.872 163.963L531.194 215.99C528.497 220.122 515.073 239.21 514.797 242.388C513.12 243.919 506.541 249.06 505.791 250.21C484.826 282.378 464.978 315.883 444.293 348.204C436.076 339.396 427.186 330.949 418.983 322.087C414.825 317.6 410.219 312.874 405.641 308.87C408.609 304.215 414.318 297.133 417.851 292.056C420.268 290.142 431.203 274.497 434.007 270.748C475.473 215.357 515.237 158.576 555.456 102.262L590.521 53.2199C595.312 46.5229 604.98 33.8554 608.808 26.9877C616.074 19.7721 624.533 8.88399 629.991 0.363612Z" fill="#B62169"/>
<path d="M694.147 0.337703C702.887 0.314016 736.691 -0.993573 742.594 1.70186L743.072 2.42792C742.342 5.66186 740.123 9.16408 738.214 11.889C722.837 33.8324 707.605 55.8952 692.296 77.8883L589.163 226.552C569.629 254.988 549.926 283.308 530.053 311.51C525.693 317.693 514.038 335.855 509.639 340.274C511.181 333.282 536.545 289.347 541.621 280.407C565.578 237.645 589.898 195.091 614.585 152.747L651.458 89.7074C669.417 59.1784 686.258 35.62 694.147 0.337703Z" fill="#E92627"/>
<path d="M169.804 727.467C174.157 721.521 182.04 713.903 187.126 708.16C197.509 696.428 210.393 683.705 220.048 671.572C228.606 660.821 231.514 651.864 241.843 640.736C251.282 630.565 263.629 629.115 270.353 622.236C281.515 610.818 293.168 593.508 303.523 580.857C304.118 580.132 304.827 579.885 305.678 579.571C304.598 581.403 300.484 588.084 299.856 589.641C298.697 593.532 295.97 597.462 294.095 601.136C288.348 612.399 280.742 623.184 275.036 634.389C271.405 641.514 267.433 648.209 263.814 655.151C259.21 663.982 255.157 673.699 250.655 682.632L220.175 741.8C216.13 749.732 212.339 757.254 208.087 765.071C205.645 769.557 198.617 781.608 196.908 785.828C187.082 786.166 176.029 785.958 166.108 785.958C151.639 786.031 137.171 785.958 122.703 785.746C123.566 784.373 125.434 783.295 126.836 782.328C129.339 776.779 145.052 764.689 149.855 759.193C156.14 752 160.843 744.459 165.257 735.965C166.359 733.848 169.356 729.217 169.804 727.467Z" fill="#F5A1D1"/>
<path d="M169.804 727.467C174.157 721.521 182.04 713.903 187.126 708.16C197.509 696.428 210.393 683.705 220.048 671.572C228.606 660.821 231.514 651.864 241.843 640.736C251.282 630.565 263.629 629.115 270.353 622.236C281.515 610.818 293.169 593.508 303.523 580.857C304.118 580.132 304.827 579.885 305.678 579.571C304.598 581.403 300.484 588.084 299.856 589.641C292.882 598.603 287.254 608.503 281.041 617.982C274.726 627.655 268.722 637.598 261.646 646.74C259.015 650.143 255.88 653.536 252.971 656.746C239.221 671.925 227.607 688.989 212.873 703.287C200.951 714.86 188.09 725.393 176.207 737C160.42 752.647 146.882 771.5 126.836 782.328C129.339 776.779 145.052 764.689 149.855 759.193C156.14 752 160.843 744.459 165.257 735.965C166.359 733.848 169.356 729.217 169.804 727.467Z" fill="#E14B2C"/>
<path d="M405.641 308.871C410.219 312.874 414.825 317.6 418.983 322.088C427.186 330.949 436.076 339.396 444.293 348.204C442.253 351.659 440.189 355.094 438.087 358.51L436.917 359.896C429.55 372.729 421.404 385.061 413.888 397.954L399.149 422.941C396.848 426.856 393.319 433.28 390.82 436.795C388.543 434.963 353.222 385.922 352.122 383.254C356.326 377.157 360.661 371.154 365.127 365.248L367.805 360.914C369.052 359.369 370.271 357.712 371.479 356.126C375.158 351.348 378.324 346.224 382.08 341.357C384.743 338.402 390.999 329.016 394.025 325.064C396.297 321.419 399.714 317.017 402.31 313.481C403.717 311.801 404.427 310.718 405.641 308.871Z" fill="#C71316"/>
<path d="M405.641 308.871C410.219 312.874 414.825 317.6 418.983 322.088C427.186 330.949 436.076 339.396 444.293 348.204C442.253 351.659 440.189 355.094 438.087 358.51L436.917 359.896C434.505 358.571 427.413 352.152 424.914 349.959L424.14 349.805C422.014 347.944 416.696 342.993 414.144 342.579L413.037 340.254C410.301 338.619 397.21 327.611 394.025 325.064C396.297 321.419 399.714 317.017 402.31 313.481C403.717 311.801 404.427 310.718 405.641 308.871Z" fill="#EB0859"/>
<path d="M394.025 325.065C396.297 321.419 399.714 317.017 402.31 313.481C407.12 319.571 410.731 332.506 413.037 340.254C410.301 338.62 397.21 327.611 394.025 325.065Z" fill="#E92627"/>
<path d="M424.914 349.959L431.319 349.597C433.34 352.483 435.665 356.053 438.087 358.51L436.917 359.896C434.505 358.57 427.413 352.152 424.914 349.959Z" fill="#E92627"/>
<path d="M414.144 342.579C416.696 342.993 422.013 347.944 424.14 349.805C416.653 351.237 416.711 348.958 414.144 342.579Z" fill="#CE3C89"/>
<path d="M657.791 23.9683C658.202 35.0444 653.803 54.5181 649.438 64.7995C646.093 72.6861 638.286 83.9764 633.433 91.1606C626.95 100.869 620.284 110.449 613.425 119.897C593.654 147.441 573.066 174.39 551.685 200.707C542.307 212.19 532.692 223.719 522.812 234.775C520.844 236.978 517.137 240.58 514.797 242.388C515.073 239.211 528.497 220.123 531.194 215.99L564.872 163.963C572.679 151.725 580.249 138.354 588.158 126.284C602.384 104.568 617.186 82.8312 631.634 61.2818C636.251 54.4025 652.725 28.7911 657.791 23.9683Z" fill="#E92627"/>
<path d="M119.611 0.349924L129.5 0.325753C148.415 0.40503 169 -0.0624161 187.735 0.419532C194.239 5.03647 196.175 10.0363 200.709 16.4785L231.109 60.5026L302.242 162.937L348.818 229.981C355.582 239.769 365.48 253.283 371.368 263.229L358.664 281.843C357.277 283.864 354.093 288.793 352.584 290.411L350.908 292.852C349.559 294.551 348.862 295.388 347.796 297.247L347.601 297.222C345.805 301.737 339.798 307.296 338.041 311.541L334.092 317.18L331.198 321.042C328.775 324.476 320.846 335.794 319.198 338.803L318.955 338.884C318.302 339.937 317.737 340.928 316.941 341.881C313.058 347.287 307.43 356.115 303.585 360.85C299.889 366.668 288.18 384.027 284.015 389.074C280.76 393.845 279.46 396.692 275.401 400.946C265.629 388.421 255.859 373.869 246.779 360.736L205.063 300.459L134.886 199.303C121.811 180.418 108.331 161.649 95.7036 142.467C90.0281 135.541 82.4841 123.711 77.173 116.095L39.8595 62.1742C32.9532 52.9384 25.9053 41.854 19.1024 32.3132C15.1569 26.7807 5.47539 13.6149 3.06371 8.58606C1.01459 6.52679 -0.429326 5.1462 0.115948 2.1849C1.7653 0.592102 1.28094 1.08227 3.77141 0.417113C7.09042 0.0937193 14.8035 0.335906 18.4435 0.342673L20.4235 0.403578L63.139 0.354276L71.8489 0.344606C78.8374 0.308351 86.0352 0.187018 93.0014 0.398746C98.6794 0.313668 104.358 0.27838 110.037 0.292398L114.434 0.347018L119.611 0.349924Z" fill="#E92627"/>
<path d="M119.611 0.349924L129.5 0.325753C148.415 0.40503 169 -0.0624161 187.735 0.419532C194.239 5.03647 196.175 10.0363 200.709 16.4785L231.109 60.5026L302.242 162.937L348.818 229.981C355.582 239.769 365.48 253.283 371.368 263.229L358.664 281.843C357.277 283.864 354.093 288.793 352.584 290.411L350.908 292.852C349.559 294.551 348.862 295.388 347.796 297.247L347.601 297.222C345.805 301.737 339.798 307.296 338.041 311.541L334.092 317.18L331.198 321.042C328.775 324.476 320.846 335.794 319.198 338.803L318.955 338.884C301.732 316.238 286.248 291.549 270.221 268.033C235.022 216.386 204.521 162.378 174.096 107.845C171.25 106.409 155.66 85.9492 150.306 81.0615L148.291 77.5018C144.891 73.1555 141.918 69.6021 138.577 65.1026L138.423 64.3557C137.473 63.3363 130.255 53.9559 129.757 53.0534C127.786 50.8356 119.176 40.7277 118.804 38.5036C120.772 37.9665 121.904 38.0004 122.763 36.1243C121.758 31.6659 100.981 7.48875 97.6203 1.57679C97.0398 0.554882 94.3584 0.523463 93.0015 0.398746C98.6795 0.313668 104.358 0.27838 110.037 0.292398L114.434 0.347018L119.611 0.349924Z" fill="#B84C91"/>
<path d="M347.601 297.222C345.979 294.956 342.817 291.544 340.762 288.744C310.074 246.951 277.004 205.976 244.275 165.746L180.291 87.4148C177.353 83.8695 170.504 78.2244 168.993 74.9257C167.138 70.8782 164.259 67.3513 162.596 63.5992C163.216 63.4488 163.334 63.4227 164.006 64.5597C166.63 69.0016 167.679 72.0432 171.563 75.774C176.543 80.7448 183.666 82.6891 188.376 88.0509C231.066 136.64 270.929 187.768 311.249 238.338C323.456 253.649 334.681 269.499 346.3 285.21C347.731 287.144 348.166 290.091 350.466 291.196C351.399 290.715 351.561 290.691 352.584 290.411L350.908 292.852C349.559 294.55 348.862 295.388 347.796 297.247L347.601 297.222Z" fill="#CE3C89"/>
<path d="M93.0015 0.398399C98.6795 0.31332 104.358 0.278032 110.037 0.29205L114.434 0.34667C115.614 4.60589 122.82 12.6028 125.552 16.8204C128.414 21.2401 131.388 26.6919 133.093 31.6719C137.879 43.7206 138.426 45.0001 146.648 56.3237C147.369 57.2204 149.24 59.6519 149.485 60.714L148.535 61.1157C147.895 63.1367 147.886 63.435 147.739 65.5808L148.859 67.759L148.669 72.9183C148.598 74.616 148.572 75.8322 148.291 77.5014C144.891 73.1552 141.918 69.6017 138.577 65.1022L138.423 64.3554C137.473 63.3359 130.255 53.9556 129.757 53.0531C127.786 50.8352 119.176 40.7274 118.804 38.5032C120.772 37.9662 121.904 38 122.763 36.1239C121.758 31.6656 100.981 7.4884 97.6203 1.57644C97.0398 0.554535 94.3584 0.523115 93.0015 0.398399Z" fill="#218CC3"/>
<path d="M129.757 53.0534C129.179 51.6399 128.477 49.8136 127.652 48.5331C126.156 46.2104 120.535 41.2299 119.943 38.8632C120.839 38.7486 121.734 38.6259 122.627 38.4939C124.225 35.0647 123.846 35.5679 127.464 35.5384C133.371 37.8326 141.734 56.0156 146.648 56.324C147.369 57.2207 149.239 59.6522 149.485 60.7143L148.535 61.116C147.895 63.1371 147.885 63.4353 147.739 65.5811L148.859 67.7593L148.669 72.9186C148.598 74.6163 148.572 75.8326 148.291 77.5017C144.891 73.1555 141.918 69.602 138.577 65.1026L138.422 64.3557C137.473 63.3362 130.254 53.9559 129.757 53.0534Z" fill="#3D80B3"/>
<path d="M147.739 65.5808C139.392 55.7393 132.758 47.1213 124.934 36.7833L125.126 36.2438L127.464 35.5381C133.371 37.8323 141.734 56.0153 146.647 56.3237C147.369 57.2204 149.239 59.6519 149.485 60.714L148.535 61.1157C147.895 63.1367 147.885 63.435 147.739 65.5808Z" fill="#226D98"/>
<path d="M138.422 64.3556L138.434 62.5869L139.06 62.1484C142.914 64.8419 146.104 72.0064 148.669 72.9186C148.598 74.6162 148.572 75.8325 148.291 77.5016C144.891 73.1554 141.918 69.602 138.577 65.1025L138.422 64.3556Z" fill="#226D98"/>
<path d="M110.037 0.291992L114.434 0.346612C115.614 4.60584 122.82 12.6027 125.552 16.8204C128.414 21.2401 131.388 26.6918 133.093 31.6718L132.741 31.8743C132.095 31.6177 109.861 3.36157 109.106 1.11135L110.037 0.291992Z" fill="#219BD7"/>
<path d="M119.611 0.349855L129.5 0.325684C130.082 7.82416 131.921 12.5648 134.509 19.6544C137.109 24.6701 138.123 29.7584 140.236 34.369C144.804 44.3372 149.156 54.8293 153.879 64.6709C151.725 64.5911 150.627 62.3563 149.485 60.7142C149.24 59.6522 147.369 57.2207 146.648 56.324C138.426 45.0004 137.879 43.7208 133.093 31.6721C131.388 26.6922 128.414 21.2404 125.552 16.8207C122.82 12.603 115.614 4.60617 114.434 0.346949L119.611 0.349855Z" fill="#3D80B3"/>
<path d="M119.611 0.349855L129.5 0.325684C130.082 7.82416 131.921 12.5648 134.509 19.6544L133.84 19.8748C131.173 18.674 121.679 3.5166 119.611 0.349855Z" fill="#219BD7"/>
<path d="M147.739 65.5812C147.885 63.4354 147.895 63.1371 148.535 61.1161L149.485 60.7144C150.627 62.3565 151.725 64.5912 153.879 64.671C156.534 68.7431 160.58 78.6977 162.952 83.6637C166.566 89.8633 171.469 100.943 174.096 107.845C171.25 106.409 155.66 85.9492 150.306 81.0616L148.291 77.5018C148.572 75.8326 148.598 74.6164 148.669 72.9187L148.859 67.7594L147.739 65.5812Z" fill="#3F6D99"/>
<path d="M147.739 65.5812C147.885 63.4354 147.895 63.1371 148.535 61.1161L149.485 60.7144C150.627 62.3565 151.725 64.5912 153.879 64.671C156.534 68.7431 160.58 78.6977 162.952 83.6637C160.273 82.6017 151.987 71.1993 148.859 67.7594L147.739 65.5812Z" fill="#3F5F85"/>
<path d="M95.7036 142.467C97.2568 142.417 97.3327 142.204 98.765 143.675C105.481 150.572 112.069 157.755 118.668 164.756L157.03 205.291L262.015 316.813L263.227 315.201C267.645 315.073 272.258 326.841 276.742 328.877C278.03 330.21 280.355 333.138 281.947 333.171C285.432 337.241 287.307 342.071 290.094 345.061L290.252 346.586C292.297 349.072 301.195 358.763 303.585 360.849C299.889 366.668 288.18 384.027 284.015 389.074C280.76 393.845 279.46 396.692 275.401 400.946C265.629 388.421 255.859 373.868 246.779 360.736L205.063 300.459L134.886 199.303C121.811 180.418 108.331 161.649 95.7036 142.467Z" fill="#E14B2C"/>
<path d="M262.015 316.813L263.227 315.201C267.645 315.073 272.258 326.841 276.742 328.877C278.03 330.21 280.355 333.138 281.947 333.171C285.432 337.241 287.307 342.071 290.094 345.061L290.252 346.586C282.727 337.88 270.16 324.701 262.015 316.813Z" fill="#B62062"/>
<path d="M150.306 81.0615C155.66 85.9492 171.25 106.409 174.096 107.845C204.521 162.378 235.021 216.386 270.221 268.033C286.248 291.549 301.732 316.238 318.955 338.884C318.302 339.937 317.737 340.928 316.94 341.881C308.747 334.711 300.253 322.71 292.37 314.768C289.599 311.977 285.974 306.372 283.214 303.049L282.043 301.467C278.941 295.582 275.231 290.776 271.395 285.347L255.612 262.903L232.396 229.62C228.201 223.585 222.057 214.296 217.568 208.825C199.928 181.962 179.279 154.368 160.676 128.001C158.852 125.416 153.039 115.779 151.352 114.355L151.495 113.96C151.787 113.88 152.714 113.363 153.025 113.201C155.52 107.337 151.513 88.2274 150.306 81.0615Z" fill="#3D80B3"/>
<path d="M71.8489 0.344374C78.8374 0.308119 86.0352 0.186786 93.0014 0.398515C94.3583 0.523231 97.0397 0.554651 97.6203 1.57655C100.981 7.48852 121.758 31.6657 122.763 36.1241C121.904 38.0001 120.772 37.9663 118.804 38.5034C119.176 40.7275 127.786 50.8353 129.757 53.0532C130.255 53.9557 137.473 63.336 138.423 64.3555L138.577 65.1024C141.918 69.6018 144.891 73.1553 148.291 77.5015L150.306 81.0613C151.513 88.2272 155.52 107.337 153.025 113.201C152.714 113.363 151.787 113.88 151.496 113.96L151.352 114.355C151.081 117.52 150.648 125.536 149.513 128.102C147.093 123.667 141.505 116.642 138.438 112.184C128.362 97.5384 117.107 83.369 107.361 68.5567C105.288 65.4055 101.693 59.9116 100.546 56.5496L99.7221 55.1023C97.6237 50.4974 94.5285 46.2411 91.9056 41.8973C87.4037 34.4419 82.676 22.4333 80.8633 13.8351C80.1334 11.2677 73.9202 3.91572 71.8489 0.344374Z" fill="#016938"/>
<path d="M71.8489 0.344374C78.8374 0.308119 86.0352 0.186786 93.0014 0.398515C94.3583 0.523231 97.0397 0.554651 97.6203 1.57655C100.981 7.48852 121.758 31.6657 122.763 36.1241C121.904 38.0001 120.772 37.9663 118.804 38.5034C119.176 40.7275 127.786 50.8353 129.757 53.0532C130.255 53.9557 137.473 63.336 138.423 64.3555L138.577 65.1024C138.081 66.6869 131.614 82.9088 131.138 83.5116C126.94 77.8568 121.953 70.2124 117.804 64.2787C110.816 54.3472 103.745 44.4738 96.5931 34.6594C92.0651 28.3795 85.9849 19.3298 80.8633 13.8351C80.1334 11.2677 73.9202 3.91572 71.8489 0.344374Z" fill="#219BD7"/>
<path d="M138.577 65.1025C141.918 69.602 144.891 73.1555 148.291 77.5017L150.306 81.0615C151.513 88.2274 155.52 107.337 153.025 113.201C152.714 113.363 151.787 113.88 151.496 113.96C150.996 110.891 134.036 87.6207 131.138 83.5118C131.614 82.909 138.081 66.6871 138.577 65.1025Z" fill="#218CC3"/>
<path d="M20.4234 0.403698L63.139 0.354397L71.8488 0.344727C73.9202 3.91607 80.1333 11.2681 80.8632 13.8354C82.676 22.4336 87.4036 34.4422 91.9055 41.8977C94.5284 46.2415 97.6236 50.4978 99.7221 55.1026L100.546 56.55C97.1741 55.033 93.3016 55.5648 90.1092 53.4886C85.9099 50.7569 82.7195 46.5808 79.2859 43.0264C77.7685 41.4558 75.2577 38.3597 73.5784 37.2749C55.5298 25.6144 37.9732 13.2239 20.2402 1.07611L20.4234 0.403698Z" fill="#E14B2C"/>
<path d="M63.139 0.354397L71.8488 0.344727C73.9202 3.91607 80.1333 11.2681 80.8632 13.8354C82.676 22.4336 87.4036 34.4422 91.9055 41.8977C94.5284 46.2415 97.6236 50.4978 99.7221 55.1027C93.7724 50.9179 70.8057 17.3371 68.3867 9.07973C68.3722 9.02946 67.856 6.06527 67.8018 5.7322C66.2472 3.96683 66.1583 4.90462 63.5474 3.59075C62.5792 1.71516 62.8344 2.73368 63.139 0.354397Z" fill="#F6A11F"/>
<path d="M276.079 326.81C275.961 326.693 275.84 326.578 275.726 326.457C273.832 324.437 269.726 319.822 269.036 317.259C268.899 316.752 269.11 315.436 269.141 314.868C269.285 312.205 259.882 298.915 259.67 293.515L260.437 293.112C266.785 294.346 276.286 312.048 280.111 311.866L281.148 310.58C283.524 311.023 289.406 318.236 291.28 320.32C288.847 313.577 285.733 309.298 283.214 303.049C285.975 306.371 289.6 311.976 292.37 314.768C300.253 322.71 308.747 334.711 316.941 341.881C313.058 347.287 307.43 356.115 303.585 360.849C301.195 358.763 292.297 349.072 290.252 346.586L290.094 345.061C287.307 342.071 285.432 337.241 281.947 333.171C280.355 333.138 278.03 330.21 276.742 328.877L276.079 326.81Z" fill="#AF2C69"/>
<path d="M276.079 326.811C278.022 328.581 280.609 330.934 281.947 333.171C280.355 333.138 278.03 330.21 276.742 328.877L276.079 326.811Z" fill="#EB0859"/>
<path d="M151.352 114.355C153.039 115.779 158.852 125.416 160.676 128.001C179.279 154.368 199.928 181.962 217.568 208.825C217.744 212.932 233.845 231.356 233.562 233.69C229.489 229.365 217.683 215.171 214.625 210.637L214.104 211.072C203.927 199.376 194.089 185.379 184.228 173.157C172.722 158.895 159.42 143.442 149.513 128.102C150.648 125.536 151.081 117.52 151.352 114.355Z" fill="#CE3C89"/>
<path d="M3.77141 0.416884C7.09042 0.0934901 14.8035 0.335677 18.4435 0.342444C15.6606 5.63179 17.526 11.3141 19.1251 16.7296C20.6019 21.7294 22.5118 26.8312 24.8684 31.4825C28.0984 37.4123 40.589 54.6547 40.5808 60.891L39.8595 62.1739C32.9532 52.9381 25.9053 41.8538 19.1024 32.313C15.1569 26.7805 5.47539 13.6146 3.06372 8.58583C1.01459 6.52656 -0.429326 5.14597 0.115948 2.18467C1.7653 0.591873 1.28094 1.08204 3.77141 0.416884Z" fill="#E14B2C"/>
<path d="M3.06371 8.58594C1.01459 6.52667 -0.429326 5.14608 0.115948 2.18478C1.7653 0.591981 1.28094 1.08215 3.77141 0.416992L4.69614 1.16577C4.92189 3.5586 4.11559 6.46431 3.06371 8.58594Z" fill="#F38223"/>
<path d="M217.568 208.825C222.057 214.296 228.201 223.585 232.396 229.62L255.612 262.903L271.395 285.347C275.232 290.776 278.941 295.582 282.043 301.467C266.773 290.722 247.659 254.606 236.186 238.663C230.448 230.691 218.966 218.987 214.104 211.073L214.625 210.637C217.683 215.171 229.489 229.365 233.562 233.69C233.845 231.356 217.744 212.932 217.568 208.825Z" fill="#AF2C69"/>
<path d="M467.583 401.512L540.813 507.685C546.092 515.309 551.269 522.956 556.65 530.507C558.491 533.093 565.781 543.056 566.695 545.144C579.369 561.773 593.228 582.665 605.265 600.155L656.491 673.839L704.062 742.283L720.73 766.371C723.519 770.412 731.011 779.35 730.528 783.972C728.425 786.655 719.154 785.891 715.717 785.954C691.581 786.408 666.947 785.311 642.854 785.968C641.588 785.983 640.157 785.876 638.876 785.813L637.343 786.195C632.915 785.664 619.491 786.099 614.512 786.113L566.366 786.21C559.516 786.234 548.741 786.679 542.249 785.412C537.768 781.376 531.846 771.147 528.385 765.839C523.068 757.68 517.983 749.37 512.322 741.404C480.882 697.936 450.007 654.063 419.713 609.798C404.046 587.349 386.276 562.889 371.455 540.17C381.664 524.512 393.58 507.763 404.394 492.468L406.095 489.824C410.33 484.009 414.12 478.024 418.214 472.417C421.501 467.713 424.75 462.985 427.964 458.229C431.904 453.143 438.773 442.987 442.476 437.394C444.477 433.924 451.332 424.56 453.879 420.993C457.77 415.559 463.634 406.201 467.583 401.512Z" fill="#1E3484"/>
<path d="M404.394 492.468C412.196 500.289 424.933 521.298 434.277 526.818C443.027 538.739 452.685 550.935 461.643 562.836L537.488 663.634L577.31 716.944C584.513 726.674 591.551 736.618 598.971 746.204C601.712 749.747 604.98 750.482 607.755 752.85C609.654 754.475 613.628 759.429 615.383 761.522C618.418 762.199 619.583 762.799 622.348 764.065C625.51 768.488 630.962 775.633 632.558 780.501L633.307 780.491C634.424 782.173 636.033 784.774 637.343 786.195C632.915 785.663 619.491 786.098 614.512 786.113L566.366 786.21C559.516 786.234 548.741 786.679 542.249 785.412C537.768 781.376 531.846 771.147 528.385 765.839C523.068 757.68 517.983 749.37 512.322 741.403C480.882 697.936 450.007 654.063 419.713 609.798C404.046 587.349 386.276 562.889 371.455 540.169C381.664 524.512 393.58 507.762 404.394 492.468Z" fill="#E92627"/>
<path d="M615.382 761.522C618.418 762.199 619.583 762.799 622.348 764.065C625.51 768.488 630.962 775.633 632.558 780.501C628.043 777.141 619.467 766.405 615.382 761.522Z" fill="#2A1B26"/>
<path d="M427.964 458.229C433.069 465.721 478.948 529.114 479.62 532.101C477.392 532.227 478.291 531.84 476.676 532.923C476.169 535.828 499.995 576.018 503.853 581.423C504.651 582.549 505.482 583.651 506.342 584.729C512.105 592.048 547.48 638.667 549.167 643.636C549.055 647.861 549.036 652.091 549.104 656.32L549.307 657.205C549.384 659.216 549.399 661.493 550.409 663.243C555.615 672.282 562.745 681.675 568.827 690.12L605.164 740.495C609.732 746.798 618.631 758.168 622.348 764.065C619.583 762.799 618.418 762.199 615.383 761.522C613.628 759.429 609.654 754.474 607.755 752.85C604.98 750.482 601.712 749.747 598.971 746.204C591.551 736.618 584.513 726.674 577.31 716.943L537.488 663.634L461.643 562.836C452.685 550.935 443.027 538.739 434.277 526.818C424.933 521.298 412.196 500.289 404.394 492.468L406.095 489.823C410.33 484.008 414.12 478.024 418.214 472.416C421.501 467.713 424.75 462.985 427.964 458.229Z" fill="#1F1B5C"/>
<path d="M427.964 458.229C433.069 465.721 478.948 529.114 479.62 532.101C477.392 532.227 478.291 531.84 476.676 532.923C476.169 535.828 499.995 576.018 503.853 581.423C504.65 582.549 505.482 583.651 506.342 584.729C505.554 584.647 504.945 584.715 504.341 584.014C499.12 577.908 493.552 570.541 488.664 564.214L443.539 505.79C439.387 500.386 435.264 494.943 431.077 489.572C429.323 487.324 426.451 483.022 423.986 482.166C421.931 478.323 421.96 475.505 418.214 472.416C421.501 467.713 424.75 462.985 427.964 458.229Z" fill="#1D2C72"/>
<path d="M423.986 482.167C426.451 483.022 429.322 487.324 431.077 489.572C435.263 494.943 439.387 500.386 443.539 505.79L488.664 564.214C493.552 570.541 499.12 577.908 504.341 584.014C504.945 584.715 505.554 584.647 506.342 584.729C512.104 592.048 547.479 638.667 549.167 643.636C549.055 647.861 549.036 652.091 549.104 656.32C543.395 649.418 534.573 636.54 529.183 629.129L490.506 576.057L448.799 519.021C442.21 509.986 427.843 491.428 423.986 482.167Z" fill="#1E3484"/>
<path d="M406.095 489.824C414.598 499.816 422.11 510.958 430.26 521.259C431.653 523.023 433.117 524.899 434.277 526.818C424.933 521.298 412.196 500.289 404.394 492.468L406.095 489.824Z" fill="#CE3C89"/>
<path d="M506.342 584.729C505.482 583.651 504.65 582.549 503.853 581.423C499.995 576.018 476.169 535.829 476.676 532.923C478.291 531.841 477.392 532.227 479.62 532.102C482.032 535.645 491.72 545.414 495.306 549.238L527.375 583.7L551.289 609.755C553.247 611.915 560.149 619.959 561.774 621.042C581.177 646.464 599.372 675.178 622.068 697.646C628.072 703.592 666.526 739.591 672.216 739.968C674.87 743.381 682.831 754.03 685.741 756.331C687.104 756.162 686.486 756.389 687.641 755.523L687.216 751.792C689.304 753.372 692.088 755.117 693.108 757.399C692.968 758.854 692.779 758.83 691.837 760.019C692.412 761.827 695.308 765.037 696.622 767.091C694.626 766.231 693.147 765.307 691.054 765.544C688.535 769.078 697.082 774.347 692.562 780.278C692.533 781.84 692.514 782.531 692.301 784.116L692.253 784.15C692.141 782.927 692.083 782.004 692.054 780.776C690.735 779.012 690.449 779.442 688.308 779.176C678.887 777.982 672.82 768.101 664.67 764.051C662.122 762.803 654.093 763.978 651.695 762.272L653.953 762.03C652.981 760.444 651.807 759.637 650.385 758.434C647.717 756.157 644.952 753.706 642.467 751.245C638.919 747.736 623.528 747.644 630.832 739.436C626.742 734.96 622.682 730.459 618.65 725.935C612.85 719.312 609.166 713.56 601.727 708.789L601.267 708.295C600.446 708.088 598.169 707.425 597.642 706.845C589.308 697.632 582.565 684.14 574.337 675.096C573.018 674.018 570.262 670.097 569.02 668.623C564.703 663.509 553.817 646.889 549.167 643.636C547.48 638.667 512.104 592.048 506.342 584.729Z" fill="#B13566"/>
<path d="M630.832 739.436C632.538 740.543 650.463 756.664 651.27 757.82L654.838 760.619C657.172 762.451 658.83 762.117 661.779 762.078L662.427 761.624L661.856 760.169C663.094 760.512 663.423 761.015 664.375 761.909C665.013 761.987 670.973 761.522 670.446 761.228C673.052 762.683 678.49 765.612 680.68 767.314C684.011 769.9 687.09 768.923 689.217 770.572C684.04 771.65 675.034 765.114 671.118 762.228C669.557 762.48 668.247 762.712 666.705 763.05C668.508 766.41 686.399 779.553 691.015 778.374L691.315 777.832C690.135 773.772 689.879 773.699 690.561 769.474L689.575 767.13C689.376 765.989 688.994 766.671 689.106 764.868L689.729 764.408C690.034 760.116 689.517 759.202 687.641 755.523L687.216 751.792C689.304 753.372 692.088 755.117 693.108 757.399C692.968 758.854 692.779 758.83 691.837 760.019C692.412 761.827 695.308 765.037 696.623 767.091C694.626 766.231 693.147 765.307 691.054 765.544C688.535 769.078 697.082 774.347 692.562 780.278C692.533 781.84 692.514 782.531 692.301 784.117L692.253 784.15C692.141 782.927 692.083 782.004 692.054 780.776C690.735 779.012 690.449 779.442 688.308 779.176C678.887 777.982 672.82 768.102 664.67 764.051C662.122 762.803 654.093 763.978 651.695 762.272L653.953 762.03C652.981 760.445 651.807 759.637 650.385 758.434C647.717 756.157 644.952 753.706 642.467 751.245C638.919 747.736 623.528 747.644 630.832 739.436Z" fill="#CE3C89"/>
<path d="M685.741 756.331C687.104 756.162 686.486 756.389 687.641 755.523C689.517 759.202 690.034 760.116 689.729 764.408L689.106 764.868C688.994 766.671 689.376 765.989 689.575 767.13C687.723 765.946 687.037 763.006 682.865 762.291C679.718 761.754 677.63 758.936 675.604 756.461L681.188 760.507C683.406 760.454 683.841 760.386 685.804 761.402L686.012 761.319C685.417 759.212 685.475 758.506 685.741 756.331Z" fill="#AF2C69"/>
<path d="M566.695 545.144C579.369 561.772 593.228 582.665 605.265 600.154L656.491 673.839L704.062 742.283L720.73 766.371C723.519 770.412 731.011 779.35 730.528 783.971C728.425 786.654 719.154 785.89 715.717 785.953C691.581 786.408 666.947 785.31 642.854 785.968C641.588 785.982 640.157 785.876 638.876 785.813L637.343 786.195C636.033 784.774 634.424 782.173 633.307 780.491L632.558 780.501C630.962 775.633 625.51 768.488 622.348 764.065C618.631 758.168 609.732 746.798 605.163 740.495L568.826 690.12C562.745 681.675 555.615 672.282 550.409 663.243C549.399 661.493 549.384 659.216 549.307 657.205L549.104 656.32C549.036 652.091 549.055 647.861 549.167 643.636C553.817 646.889 564.703 663.508 569.02 668.623C570.262 670.097 573.018 674.018 574.337 675.096C582.565 684.14 589.308 697.632 597.642 706.845C598.169 707.425 600.446 708.088 601.267 708.295L601.727 708.788C609.166 713.56 612.85 719.312 618.65 725.935C622.682 730.459 626.742 734.96 630.832 739.436C623.528 747.644 638.919 747.736 642.467 751.245C644.952 753.706 647.717 756.157 650.385 758.433C651.807 759.637 652.981 760.444 653.953 762.03L651.695 762.272C654.093 763.978 662.122 762.803 664.67 764.051C672.82 768.101 678.887 777.982 688.308 779.176C690.449 779.442 690.735 779.012 692.054 780.776C692.083 782.004 692.141 782.927 692.253 784.15L692.301 784.116C692.514 782.531 692.533 781.84 692.562 780.278C697.082 774.347 688.535 769.078 691.054 765.544C693.147 765.307 694.626 766.231 696.622 767.091C695.308 765.037 692.412 761.827 691.837 760.019C692.779 758.83 692.968 758.854 693.108 757.399C692.088 755.117 689.304 753.372 687.216 751.792C684.745 742.66 681.096 736.371 678.587 726.558C681.647 729.415 683.464 731.083 686.829 733.505C686.466 732.093 680.322 713.937 683.643 719.007C653.523 673.022 615.455 618.862 585.189 573.596C570.987 552.346 568.087 550.471 566.695 545.144Z" fill="#B854A0"/>
<path d="M549.307 657.205C560.333 670.146 570.02 686.045 580.462 699.551C597.173 721.168 615.262 742.085 628.879 765.825C629.556 767.004 632.577 771.538 632.882 772.442C633.143 775.734 637.213 782.526 638.876 785.813L637.343 786.195C636.033 784.774 634.424 782.173 633.307 780.491L632.558 780.501C630.962 775.633 625.51 768.488 622.348 764.065C618.631 758.168 609.732 746.798 605.163 740.495L568.826 690.12C562.745 681.675 555.615 672.282 550.409 663.243C549.399 661.493 549.384 659.216 549.307 657.205Z" fill="#AF2C69"/>
<path d="M574.337 675.096C582.565 684.14 589.308 697.632 597.642 706.845C598.169 707.425 600.445 708.088 601.267 708.296L601.726 708.789L601.543 709.354C602.128 710.795 612.874 724.291 614.638 726.549C624.238 738.634 633.524 750.975 642.477 763.548C646.185 768.691 650.753 774.188 653.842 779.626C645.754 773.622 633.365 760.681 626.675 752.991C621.831 747.465 617.176 741.781 612.724 735.941C600.025 719.109 588.288 701.011 577.223 683.057C575.715 680.602 574.134 678.006 574.337 675.096Z" fill="#CE3C89"/>
<path d="M638.876 785.813C637.213 782.526 633.143 775.734 632.882 772.442C636.174 777.513 639.514 781.197 642.854 785.968C641.588 785.982 640.157 785.876 638.876 785.813Z" fill="#E92627"/>
<path d="M442.476 437.394C453.091 451.727 463.61 468.037 473.674 482.95L530.976 567.873L546.692 591.178C549.36 595.166 556.601 606.187 559.874 609.358C560.72 613.366 561.218 616.996 561.774 621.042C560.149 619.959 553.246 611.915 551.289 609.755L527.375 583.699L495.306 549.238C491.72 545.414 482.032 535.645 479.62 532.101C478.948 529.114 433.069 465.721 427.964 458.229C431.904 453.143 438.773 442.987 442.476 437.394Z" fill="#1F1B5C"/>
<path d="M558.458 600.652C582.105 628.699 604.593 658.027 627.555 686.634C628.009 687.195 628.236 687.292 628.889 687.538C629.672 686.596 629.681 685.595 629.889 684.358C631.136 685.044 668.508 734.684 672.216 739.968C666.526 739.591 628.072 703.592 622.068 697.646C599.372 675.178 581.177 646.464 561.774 621.042C561.218 616.996 560.72 613.366 559.874 609.358C559.453 606.361 559.076 603.62 558.458 600.652Z" fill="#AF2C69"/>
</svg>
